<svg height='20px' width='20px'  fill="#000000" xmlns="http://www.w3.org/2000/svg" xmlns:xlink="http://www.w3.org/1999/xlink" xml:space="preserve" version="1.1" style="shape-rendering:geometricPrecision;text-rendering:geometricPrecision;image-rendering:optimizeQuality;" viewBox="0 0 847 847" x="0px" y="0px" fill-rule="evenodd" clip-rule="evenodd"><defs><style type="text/css">
   
    .fil0 {fill:#000000;fill-rule:nonzero}
   
  </style></defs><g><path class="fil0" d="M103 12l640 0c51,0 92,41 92,91l0 640c0,51 -41,92 -92,92l-640 0c-50,0 -91,-41 -91,-92l0 -640c0,-50 41,-91 91,-91zm378 411l238 239 -114 0 -182 -181 -181 181 -115 0 239 -239 -239 -238 115 0 181 181 182 -181 114 0 -238 238zm130 -223l-188 188 -187 -188 -72 0 224 223 -224 224 72 0 187 -188 188 188 71 0 -223 -224 223 -223 -71 0zm132 -168l-640 0c-39,0 -71,32 -71,71l0 640c0,40 32,72 71,72l640 0c40,0 72,-32 72,-72l0 -640c0,-39 -32,-71 -72,-71z"></path></g></svg>