<svg height='25px' width='25px'  fill="#000000" xmlns="http://www.w3.org/2000/svg" xmlns:xlink="http://www.w3.org/1999/xlink" xml:space="preserve" version="1.1" style="shape-rendering:geometricPrecision;text-rendering:geometricPrecision;image-rendering:optimizeQuality;" viewBox="0 0 847 847" x="0px" y="0px" fill-rule="evenodd" clip-rule="evenodd"><defs><style type="text/css">
   
    .fil0 {fill:#000000;fill-rule:nonzero}
   
  </style></defs><g><path class="fil0" d="M103 12l640 0c51,0 92,41 92,91l0 640c0,51 -41,92 -92,92l-640 0c-50,0 -91,-41 -91,-92l0 -640c0,-50 41,-91 91,-91zm64 203l48 -48 208 208 208 -208 48 48 -208 208 208 208 -48 48 -208 -208 -208 208 -48 -48 208 -208 -208 -208zm576 -183l-640 0c-39,0 -71,32 -71,71l0 640c0,40 32,72 71,72l640 0c40,0 72,-32 72,-72l0 -640c0,-39 -32,-71 -72,-71z"></path></g></svg>