<svg width="50px" height="50px" viewBox="0 0 150 150" fill="none" xmlns="http://www.w3.org/2000/svg">
<rect x="3" y="3" width="144" height="144" stroke="black" stroke-width="6"/>
<path d="M92.752 101C89.808 101 87.408 100.232 85.552 98.696C83.76 97.16 82.736 95.016 82.48 92.264H82C81.168 95.464 79.408 97.928 76.72 99.656C74.032 101.32 70.768 102.152 66.928 102.152C62.064 102.152 58.192 100.84 55.312 98.216C52.432 95.592 50.992 91.976 50.992 87.368C50.992 77.192 58.416 72.104 73.264 72.104H81.232V69.608C81.232 66.6 80.528 64.36 79.12 62.888C77.712 61.416 75.408 60.68 72.208 60.68C69.392 60.68 67.024 61.224 65.104 62.312C63.248 63.4 61.584 64.936 60.112 66.92L52.336 60.008C54.064 57.064 56.752 54.728 60.4 53C64.048 51.208 68.528 50.312 73.84 50.312C80.688 50.312 86 51.912 89.776 55.112C93.552 58.248 95.44 62.888 95.44 69.032V87.464C95.44 88.36 95.76 89.128 96.4 89.768C97.04 90.408 97.808 90.728 98.704 90.728H100.912V101H92.752ZM72.304 92.84C74.928 92.84 77.072 92.232 78.736 91.016C80.4 89.736 81.232 87.976 81.232 85.736V79.784H73.648C70.832 79.784 68.656 80.296 67.12 81.32C65.648 82.28 64.912 83.72 64.912 85.64V87.56C64.912 89.288 65.552 90.6 66.832 91.496C68.176 92.392 70 92.84 72.304 92.84Z" fill="black"/>
</svg>
