<svg height='100px' width='100px'  fill="#000000" xmlns="http://www.w3.org/2000/svg" xmlns:xlink="http://www.w3.org/1999/xlink" xml:space="preserve" version="1.1" style="shape-rendering:geometricPrecision;text-rendering:geometricPrecision;image-rendering:optimizeQuality;" viewBox="0 0 847 847" x="0px" y="0px" fill-rule="evenodd" clip-rule="evenodd"><defs><style type="text/css">
   
    .fil0 {fill:#000000}
   
  </style></defs><g><path class="fil0" d="M423 20c223,0 403,181 403,403 0,223 -180,403 -403,403 -222,0 -403,-180 -403,-403 0,-222 181,-403 403,-403zm210 573l-170 -170 170 -169c11,-11 11,-29 0,-40l0 0c-11,-11 -29,-11 -40,0l-170 169 -169 -169c-11,-11 -29,-11 -40,0l0 0c-11,11 -11,29 0,40l169 169 -169 170c-11,11 -11,29 0,40l0 0c11,11 29,11 40,0l169 -170 170 170c11,11 29,11 40,0l0 0c11,-11 11,-29 0,-40z"></path></g></svg>